<svg height="512pt" viewBox="0 -28 512 511" width="512pt" 
    xmlns="http://www.w3.org/2000/svg">
    <path style="fill:#0096E6;" d="m488 456.46875c-4.425781 0-8-3.578125-8-8v-47.96875c0-4.425781 3.574219-8 8-8s8 3.574219 8 8v47.96875c0 4.421875-3.574219 8-8 8zm0 0"/>
    <path style="fill:#0096E6;" d="m24 456.46875c-4.425781 0-8-3.578125-8-8v-47.96875c0-4.425781 3.574219-8 8-8s8 3.574219 8 8v47.96875c0 4.421875-3.574219 8-8 8zm0 0"/>
    <path style="fill:#0096E6;" d="m504 408.5h-496c-4.425781 0-8-3.574219-8-8v-32c0-4.425781 3.574219-8 8-8h496c4.425781 0 8 3.574219 8 8v32c0 4.425781-3.574219 8-8 8zm-488-16h480v-16h-480zm0 0"/>
    <path style="fill:#0096E6;" d="m40 376.5c-4.425781 0-8-3.574219-8-8v-24c0-4.425781 3.574219-8 8-8s8 3.574219 8 8v24c0 4.425781-3.574219 8-8 8zm0 0"/>
    <path style="fill:#0096E6;" d="m184 376.5c-4.425781 0-8-3.574219-8-8v-24c0-4.425781 3.574219-8 8-8s8 3.574219 8 8v24c0 4.425781-3.574219 8-8 8zm0 0"/>
    <path style="fill:#0096E6;" d="m184 352.5h-144c-4.425781 0-8-3.574219-8-8s3.574219-8 8-8h144c4.425781 0 8 3.574219 8 8s-3.574219 8-8 8zm0 0"/>
    <path style="fill:#0096E6;" d="m40 352.5c-4.425781 0-8-3.574219-8-8v-24c0-4.425781 3.574219-8 8-8s8 3.574219 8 8v24c0 4.425781-3.574219 8-8 8zm0 0"/>
    <path style="fill:#0096E6;" d="m184 352.5c-4.425781 0-8-3.574219-8-8v-24c0-4.425781 3.574219-8 8-8s8 3.574219 8 8v24c0 4.425781-3.574219 8-8 8zm0 0"/>
    <path style="fill:#0096E6;" d="m184 328.5h-144c-4.425781 0-8-3.574219-8-8s3.574219-8 8-8h144c4.425781 0 8 3.574219 8 8s-3.574219 8-8 8zm0 0"/>
    <path style="fill:#0096E6;" d="m40 328.5c-4.425781 0-8-3.574219-8-8v-24c0-4.425781 3.574219-8 8-8s8 3.574219 8 8v24c0 4.425781-3.574219 8-8 8zm0 0"/>
    <path style="fill:#0096E6;" d="m184 328.5c-4.425781 0-8-3.574219-8-8v-24c0-4.425781 3.574219-8 8-8s8 3.574219 8 8v24c0 4.425781-3.574219 8-8 8zm0 0"/>
    <path style="fill:#0096E6;" d="m184 304.5h-144c-4.425781 0-8-3.574219-8-8s3.574219-8 8-8h144c4.425781 0 8 3.574219 8 8s-3.574219 8-8 8zm0 0"/>
    <path style="fill:#0096E6;" d="m112 304.5c-4.425781 0-8-3.574219-8-8v-24c0-4.425781 3.574219-8 8-8s8 3.574219 8 8v24c0 4.425781-3.574219 8-8 8zm0 0"/>
    <path style="fill:#0096E6;" d="m256 304.5c-4.425781 0-8-3.574219-8-8v-24c0-4.425781 3.574219-8 8-8s8 3.574219 8 8v24c0 4.425781-3.574219 8-8 8zm0 0"/>
    <path style="fill:#0096E6;" d="m256 280.5h-144c-4.425781 0-8-3.574219-8-8s3.574219-8 8-8h144c4.425781 0 8 3.574219 8 8s-3.574219 8-8 8zm0 0"/>
    <path style="fill:#0096E6;" d="m112 280.5c-4.425781 0-8-3.574219-8-8v-24c0-4.425781 3.574219-8 8-8s8 3.574219 8 8v24c0 4.425781-3.574219 8-8 8zm0 0"/>
    <path style="fill:#0096E6;" d="m256 280.5c-4.425781 0-8-3.574219-8-8v-24c0-4.425781 3.574219-8 8-8s8 3.574219 8 8v24c0 4.425781-3.574219 8-8 8zm0 0"/>
    <path style="fill:#0096E6;" d="m256 256.5h-144c-4.425781 0-8-3.574219-8-8s3.574219-8 8-8h144c4.425781 0 8 3.574219 8 8s-3.574219 8-8 8zm0 0"/>
    <path style="fill:#0096E6;" d="m112 256.5c-4.425781 0-8-3.574219-8-8v-24c0-4.425781 3.574219-8 8-8s8 3.574219 8 8v24c0 4.425781-3.574219 8-8 8zm0 0"/>
    <path style="fill:#0096E6;" d="m256 256.5c-4.425781 0-8-3.574219-8-8v-24c0-4.425781 3.574219-8 8-8s8 3.574219 8 8v24c0 4.425781-3.574219 8-8 8zm0 0"/>
    <path style="fill:#0096E6;" d="m256 232.5h-144c-4.425781 0-8-3.574219-8-8s3.574219-8 8-8h144c4.425781 0 8 3.574219 8 8s-3.574219 8-8 8zm0 0"/>
    <path style="fill:#0096E6;" d="m256 304.5c-4.425781 0-8-3.574219-8-8v-24c0-4.425781 3.574219-8 8-8s8 3.574219 8 8v24c0 4.425781-3.574219 8-8 8zm0 0"/>
    <path style="fill:#0096E6;" d="m400 304.5c-4.425781 0-8-3.574219-8-8v-24c0-4.425781 3.574219-8 8-8s8 3.574219 8 8v24c0 4.425781-3.574219 8-8 8zm0 0"/>
    <path style="fill:#0096E6;" d="m400 280.5h-144c-4.425781 0-8-3.574219-8-8s3.574219-8 8-8h144c4.425781 0 8 3.574219 8 8s-3.574219 8-8 8zm0 0"/>
    <path style="fill:#0096E6;" d="m256 280.5c-4.425781 0-8-3.574219-8-8v-24c0-4.425781 3.574219-8 8-8s8 3.574219 8 8v24c0 4.425781-3.574219 8-8 8zm0 0"/>
    <path style="fill:#0096E6;" d="m400 280.5c-4.425781 0-8-3.574219-8-8v-24c0-4.425781 3.574219-8 8-8s8 3.574219 8 8v24c0 4.425781-3.574219 8-8 8zm0 0"/>
    <path style="fill:#0096E6;" d="m400 256.5h-144c-4.425781 0-8-3.574219-8-8s3.574219-8 8-8h144c4.425781 0 8 3.574219 8 8s-3.574219 8-8 8zm0 0"/>
    <path style="fill:#0096E6;" d="m256 256.5c-4.425781 0-8-3.574219-8-8v-24c0-4.425781 3.574219-8 8-8s8 3.574219 8 8v24c0 4.425781-3.574219 8-8 8zm0 0"/>
    <path style="fill:#0096E6;" d="m400 256.5c-4.425781 0-8-3.574219-8-8v-24c0-4.425781 3.574219-8 8-8s8 3.574219 8 8v24c0 4.425781-3.574219 8-8 8zm0 0"/>
    <path style="fill:#0096E6;" d="m400 232.5h-144c-4.425781 0-8-3.574219-8-8s3.574219-8 8-8h144c4.425781 0 8 3.574219 8 8s-3.574219 8-8 8zm0 0"/>
    <path style="fill:#0096E6;" d="m184 376.5c-4.425781 0-8-3.574219-8-8v-24c0-4.425781 3.574219-8 8-8s8 3.574219 8 8v24c0 4.425781-3.574219 8-8 8zm0 0"/>
    <path style="fill:#0096E6;" d="m328 376.5c-4.425781 0-8-3.574219-8-8v-24c0-4.425781 3.574219-8 8-8s8 3.574219 8 8v24c0 4.425781-3.574219 8-8 8zm0 0"/>
    <path style="fill:#0096E6;" d="m328 352.5h-144c-4.425781 0-8-3.574219-8-8s3.574219-8 8-8h144c4.425781 0 8 3.574219 8 8s-3.574219 8-8 8zm0 0"/>
    <path style="fill:#0096E6;" d="m184 352.5c-4.425781 0-8-3.574219-8-8v-24c0-4.425781 3.574219-8 8-8s8 3.574219 8 8v24c0 4.425781-3.574219 8-8 8zm0 0"/>
    <path style="fill:#0096E6;" d="m328 352.5c-4.425781 0-8-3.574219-8-8v-24c0-4.425781 3.574219-8 8-8s8 3.574219 8 8v24c0 4.425781-3.574219 8-8 8zm0 0"/>
    <path style="fill:#0096E6;" d="m328 328.5h-144c-4.425781 0-8-3.574219-8-8s3.574219-8 8-8h144c4.425781 0 8 3.574219 8 8s-3.574219 8-8 8zm0 0"/>
    <path style="fill:#0096E6;" d="m184 328.5c-4.425781 0-8-3.574219-8-8v-24c0-4.425781 3.574219-8 8-8s8 3.574219 8 8v24c0 4.425781-3.574219 8-8 8zm0 0"/>
    <path style="fill:#0096E6;" d="m328 328.5c-4.425781 0-8-3.574219-8-8v-24c0-4.425781 3.574219-8 8-8s8 3.574219 8 8v24c0 4.425781-3.574219 8-8 8zm0 0"/>
    <path style="fill:#0096E6;" d="m328 304.5h-144c-4.425781 0-8-3.574219-8-8s3.574219-8 8-8h144c4.425781 0 8 3.574219 8 8s-3.574219 8-8 8zm0 0"/>
    <path style="fill:#0096E6;" d="m328 376.5c-4.425781 0-8-3.574219-8-8v-24c0-4.425781 3.574219-8 8-8s8 3.574219 8 8v24c0 4.425781-3.574219 8-8 8zm0 0"/>
    <path style="fill:#0096E6;" d="m472 376.5c-4.425781 0-8-3.574219-8-8v-24c0-4.425781 3.574219-8 8-8s8 3.574219 8 8v24c0 4.425781-3.574219 8-8 8zm0 0"/>
    <path style="fill:#0096E6;" d="m472 352.5h-144c-4.425781 0-8-3.574219-8-8s3.574219-8 8-8h144c4.425781 0 8 3.574219 8 8s-3.574219 8-8 8zm0 0"/>
    <path style="fill:#0096E6;" d="m328 352.5c-4.425781 0-8-3.574219-8-8v-24c0-4.425781 3.574219-8 8-8s8 3.574219 8 8v24c0 4.425781-3.574219 8-8 8zm0 0"/>
    <path style="fill:#0096E6;" d="m472 352.5c-4.425781 0-8-3.574219-8-8v-24c0-4.425781 3.574219-8 8-8s8 3.574219 8 8v24c0 4.425781-3.574219 8-8 8zm0 0"/>
    <path style="fill:#0096E6;" d="m472 328.5h-144c-4.425781 0-8-3.574219-8-8s3.574219-8 8-8h144c4.425781 0 8 3.574219 8 8s-3.574219 8-8 8zm0 0"/>
    <path style="fill:#0096E6;" d="m328 328.5c-4.425781 0-8-3.574219-8-8v-24c0-4.425781 3.574219-8 8-8s8 3.574219 8 8v24c0 4.425781-3.574219 8-8 8zm0 0"/>
    <path style="fill:#0096E6;" d="m472 328.5c-4.425781 0-8-3.574219-8-8v-24c0-4.425781 3.574219-8 8-8s8 3.574219 8 8v24c0 4.425781-3.574219 8-8 8zm0 0"/>
    <path style="fill:#0096E6;" d="m472 304.5h-144c-4.425781 0-8-3.574219-8-8s3.574219-8 8-8h144c4.425781 0 8 3.574219 8 8s-3.574219 8-8 8zm0 0"/>
    <path style="fill:#0096E6;" d="m328 200.5h-136c-4.425781 0-8-3.574219-8-8v-184c0-4.425781 3.574219-8 8-8h96c2.128906 0 4.160156.839844 5.65625 2.34375l40 39.992188c1.503906 1.496093 2.34375 3.527343 2.34375 5.65625v144.007812c0 4.425781-3.574219 8-8 8zm-128-16h120v-132.695312l-35.3125-35.304688h-84.6875zm0 0"/>
    <path style="fill:#0096E6;" d="m328 56.492188h-40c-4.425781 0-8-3.578126-8-8 0-4.425782 3.574219-8 8-8h40c4.425781 0 8 3.574218 8 8 0 4.421874-3.574219 8-8 8zm0 0"/>
    <path style="fill:#0096E6;" d="m288 56.492188c-4.425781 0-8-3.578126-8-8v-39.992188c0-4.425781 3.574219-8 8-8s8 3.574219 8 8v39.992188c0 4.421874-3.574219 8-8 8zm0 0"/>
    <path style="fill:#0096E6;" d="m256.121094 136.476562c-2.050782 0-4.097656-.785156-5.65625-2.34375l-8-8c-3.128906-3.128906-3.128906-8.183593 0-11.3125 3.128906-3.128906 8.183594-3.128906 11.3125 0l8 8c3.125 3.128907 3.125 8.183594 0 11.3125-1.570313 1.558594-3.609375 2.34375-5.65625 2.34375zm0 0"/>
    <path style="fill:#0096E6;" d="m256.121094 136.476562c-2.050782 0-4.097656-.785156-5.65625-2.34375-3.128906-3.128906-3.128906-8.183593 0-11.3125l40.007812-40.007812c3.128906-3.128906 8.183594-3.128906 11.3125 0 3.125 3.128906 3.125 8.183594 0 11.3125l-40.007812 40.007812c-1.570313 1.558594-3.609375 2.34375-5.65625 2.34375zm0 0"/>
    <path style="fill:#0096E6;" d="m272.136719 88.460938h-48.015625c-4.425782 0-8-3.578126-8-8 0-4.425782 3.574218-8 8-8h48.015625c4.421875 0 8 3.574218 8 8 0 4.421874-3.585938 8-8 8zm0 0"/>
    <path style="fill:#0096E6;" d="m224.121094 160.484375c-4.425782 0-8-3.578125-8-8v-72.023437c0-4.425782 3.574218-8 8-8 4.421875 0 8 3.574218 8 8v72.023437c0 4.421875-3.585938 8-8 8zm0 0"/>
    <path style="fill:#0096E6;" d="m296.128906 160.484375h-72.007812c-4.425782 0-8-3.578125-8-8 0-4.425781 3.574218-8 8-8h72.007812c4.421875 0 8 3.574219 8 8 0 4.421875-3.585937 8-8 8zm0 0"/>
    <path style="fill:#0096E6;" d="m296.136719 160.484375c-4.425781 0-8-3.578125-8-8v-32.007813c0-4.425781 3.574219-8 8-8 4.421875 0 8 3.574219 8 8v32.007813c0 4.421875-3.585938 8-8 8zm0 0"/>
</svg>