<?xml version="1.0"?>
<svg xmlns="http://www.w3.org/2000/svg" height="512px" viewBox="0 -24 512.03504 512" width="512px" class="">
    <g>
        <path d="m400.019531 56.035156h-48v-48zm0 0" fill="#d7e9ff" data-original="#D7E9FF" class="" style="fill:#0096E6" data-old_color="#D7E9FF"/>
        <path d="m160.019531 96.035156h32v32h-32zm0 0" fill="#d7e9ff" data-original="#D7E9FF" class="" style="fill:#0096E6" data-old_color="#D7E9FF"/>
        <path d="m400.019531 192.035156v32h-288v-216h240v48h48zm-208-64v-32h-32v32zm0 0" fill="#94c1ff" data-original="#94C1FF" class="active-path" style="fill:#F4F6F7" data-old_color="#EEF0F2"/>
        <path d="m400.019531 224.035156v-32h56l48 64h-496l48-64h56v32zm0 0" fill="#d7e9ff" data-original="#D7E9FF" class="" style="fill:#0096E6" data-old_color="#D7E9FF"/>
        <path d="m504.019531 256.035156v199.839844h-496v-199.839844h103.832031v144.082032h288.167969v-144.082032zm0 0" fill="#d7e9ff" data-original="#D7E9FF" class="" style="fill:#0096E6" data-old_color="#D7E9FF"/>
        <path d="m160.019531 288.035156h32v32h-32zm0 0" fill="#d7e9ff" data-original="#D7E9FF" class="" style="fill:#0096E6" data-old_color="#D7E9FF"/>
        <path d="m400.019531 256.035156v144.082032h-288.167969v-144.082032zm-208 64v-32h-32v32zm0 0" fill="#d7e9ff" data-original="#D7E9FF" class="" style="fill:#0096E6" data-old_color="#D7E9FF"/>
        <g fill="#116fff">
            <path d="m504.035156 463.890625c-4.425781 0-8-3.574219-8-8v-191.871094h-480.03125v191.871094c0 4.425781-3.578125 8-8 8-4.425781 0-7.99999975-3.574219-7.99999975-8v-199.871094c0-4.425781 3.57421875-8 7.99999975-8h496.03125c4.425782 0 8 3.574219 8 8v199.871094c0 4.425781-3.574218 8-8 8zm0 0" data-original="#000000" class="" style="fill:#0096E6" data-old_color="#000000"/>
            <path d="m7.996094 264.019531c-1.671875 0-3.351563-.519531-4.792969-1.601562-3.535156-2.644531-4.257813-7.664063-1.601563-11.191407l48-64c2.65625-3.535156 7.671876-4.253906 11.195313-1.597656 3.535156 2.648438 4.253906 7.664063 1.597656 11.199219l-48 63.992187c-1.558593 2.09375-3.960937 3.199219-6.398437 3.199219zm0 0" data-original="#000000" class="" style="fill:#0096E6" data-old_color="#000000"/>
            <path d="m504.042969 264.019531c-2.441407 0-4.832031-1.105469-6.40625-3.199219l-48-63.992187c-2.65625-3.535156-1.9375-8.550781 1.597656-11.199219 3.527344-2.664062 8.535156-1.9375 11.191406 1.597656l48 64c2.65625 3.527344 1.9375 8.546876-1.597656 11.191407-1.433594 1.074219-3.113281 1.601562-4.785156 1.601562zm0 0" data-original="#000000" class="" style="fill:#0096E6" data-old_color="#000000"/>
            <path d="m112.003906 200.019531h-56c-4.425781 0-8-3.585937-8-8 0-4.414062 3.574219-8 8-8h56c4.421875 0 8 3.585938 8 8 0 4.414063-3.578125 8-8 8zm0 0" data-original="#000000" class="" style="fill:#0096E6" data-old_color="#000000"/>
            <path d="m407.921875 232.011719h-304.03125c-4.421875 0-8-3.585938-8-8 0-4.417969 3.578125-8 8-8h304.03125c4.425781 0 8 3.582031 8 8 0 4.414062-3.574219 8-8 8zm0 0" data-original="#000000" class="" style="fill:#0096E6" data-old_color="#000000"/>
            <path d="m400.003906 232.011719c-4.425781 0-8-3.585938-8-8v-167.992188c0-4.414062 3.574219-8 8-8 4.421875 0 8 3.585938 8 8v167.992188c0 4.421875-3.578125 8-8 8zm0 0" data-original="#000000" class="" style="fill:#0096E6" data-old_color="#000000"/>
            <path d="m112.003906 232.011719c-4.425781 0-8-3.585938-8-8v-215.992188c0-4.414062 3.574219-7.9999998 8-7.9999998 4.421875 0 8 3.5859378 8 7.9999998v215.992188c0 4.421875-3.578125 8-8 8zm0 0" data-original="#000000" class="" style="fill:#0096E6" data-old_color="#000000"/>
            <path d="m400.003906 64.019531c-2.050781 0-4.097656-.785156-5.65625-2.34375l-48-48c-3.128906-3.128906-3.128906-8.183593 0-11.3125 3.128906-3.128906 8.183594-3.128906 11.3125 0l48 48c3.125 3.128907 3.125 8.183594 0 11.3125-1.5625 1.566407-3.609375 2.34375-5.65625 2.34375zm0 0" data-original="#000000" class="" style="fill:#0096E6" data-old_color="#000000"/>
            <path d="m352.003906 16.019531h-240c-4.425781 0-8-3.585937-8-8 0-4.414062 3.574219-7.9999998 8-7.9999998h240c4.421875 0 8 3.5859378 8 7.9999998 0 4.414063-3.578125 8-8 8zm0 0" data-original="#000000" class="" style="fill:#0096E6" data-old_color="#000000"/>
            <path d="m400.003906 64.019531h-48c-4.425781 0-8-3.585937-8-8 0-4.414062 3.574219-8 8-8h48c4.421875 0 8 3.585938 8 8 0 4.414063-3.578125 8-8 8zm0 0" data-original="#000000" class="" style="fill:#0096E6" data-old_color="#000000"/>
            <path d="m352.003906 64.019531c-4.425781 0-8-3.585937-8-8v-48c0-4.414062 3.574219-7.9999998 8-7.9999998 4.421875 0 8 3.5859378 8 7.9999998v48c0 4.425781-3.578125 8-8 8zm0 0" data-original="#000000" class="" style="fill:#0096E6" data-old_color="#000000"/>
            <path d="m456.035156 200.019531h-56.03125c-4.425781 0-8-3.585937-8-8 0-4.414062 3.574219-8 8-8h56.03125c4.425782 0 8 3.585938 8 8 0 4.414063-3.574218 8-8 8zm0 0" data-original="#000000" class="" style="fill:#0096E6" data-old_color="#000000"/>
            <path d="m111.875 408.082031c-4.425781 0-8-3.574219-8-8v-144.0625c0-4.425781 3.574219-8 8-8s8 3.574219 8 8v144.0625c0 4.417969-3.574219 8-8 8zm0 0" data-original="#000000" class="" style="fill:#0096E6" data-old_color="#000000"/>
            <path d="m400.003906 408.082031c-4.425781 0-8-3.574219-8-8v-144.0625c0-4.425781 3.574219-8 8-8 4.421875 0 8 3.574219 8 8v144.0625c0 4.417969-3.578125 8-8 8zm0 0" data-original="#000000" class="" style="fill:#0096E6" data-old_color="#000000"/>
            <path d="m400.003906 408.082031h-288.128906c-4.425781 0-8-3.574219-8-8 0-4.421875 3.574219-8 8-8h288.128906c4.421875 0 8 3.578125 8 8 0 4.425781-3.578125 8-8 8zm0 0" data-original="#000000" class="" style="fill:#0096E6" data-old_color="#000000"/>
            <path d="m192.019531 136.019531h-32c-4.425781 0-8-3.585937-8-8v-32c0-4.414062 3.574219-8 8-8h32c4.421875 0 8 3.585938 8 8v32c0 4.425781-3.578125 8-8 8zm-24-16h16v-16h-16zm0 0" data-original="#000000" class="" style="fill:#0096E6" data-old_color="#000000"/>
            <path d="m352.003906 120.019531h-127.984375c-4.425781 0-8-3.585937-8-8 0-4.414062 3.574219-8 8-8h127.984375c4.421875 0 8 3.585938 8 8 0 4.414063-3.578125 8-8 8zm0 0" data-original="#000000" class="" style="fill:#0096E6" data-old_color="#000000"/>
            <path d="m352.003906 184.019531h-127.984375c-4.425781 0-8-3.585937-8-8 0-4.414062 3.574219-8 8-8h127.984375c4.421875 0 8 3.585938 8 8 0 4.414063-3.578125 8-8 8zm0 0" data-original="#000000" class="" style="fill:#0096E6" data-old_color="#000000"/>
            <path d="m192.019531 328.035156h-32c-4.425781 0-8-3.574218-8-8v-32c0-4.421875 3.574219-8 8-8h32c4.421875 0 8 3.578125 8 8v32c0 4.425782-3.578125 8-8 8zm-24-16h16v-16h-16zm0 0" data-original="#000000" class="" style="fill:#0096E6" data-old_color="#000000"/>
            <path d="m352.003906 312.035156h-127.984375c-4.425781 0-8-3.574218-8-8 0-4.421875 3.574219-8 8-8h127.984375c4.421875 0 8 3.578125 8 8 0 4.425782-3.578125 8-8 8zm0 0" data-original="#000000" class="" style="fill:#0096E6" data-old_color="#000000"/>
            <path d="m168.003906 192.027344c-2.050781 0-4.097656-.785156-5.65625-2.34375l-7.984375-7.992188c-3.128906-3.128906-3.128906-8.183594 0-11.3125 3.128907-3.121094 8.183594-3.128906 11.3125.007813l7.984375 7.992187c3.125 3.128906 3.125 8.183594 0 11.3125-1.5625 1.558594-3.609375 2.335938-5.65625 2.335938zm0 0" data-original="#000000" class="" style="fill:#0096E6" data-old_color="#000000"/>
            <path d="m168.003906 192.027344c-2.050781 0-4.097656-.785156-5.65625-2.34375-3.128906-3.121094-3.128906-8.183594 0-11.3125l23.984375-23.992188c3.128907-3.128906 8.183594-3.128906 11.3125 0 3.125 3.121094 3.125 8.183594 0 11.3125l-23.984375 23.992188c-1.5625 1.566406-3.609375 2.34375-5.65625 2.34375zm0 0" data-original="#000000" class="" style="fill:#0096E6" data-old_color="#000000"/>
        </g>
    </g>
</svg>
