<svg viewBox="0 0 512 512" 
    xmlns="http://www.w3.org/2000/svg">
    <path style="fill:#0096E6;" d="m437.019531 74.980469c-48.351562-48.351563-112.640625-74.980469-181.019531-74.980469s-132.667969 26.628906-181.019531 74.980469c-48.351563 48.351562-74.980469 112.636719-74.980469 181.015625 0 68.382812 26.628906 132.667968 74.980469 181.019531 48.351562 48.355469 112.640625 74.984375 181.019531 74.984375s132.667969-26.628906 181.019531-74.980469c48.351563-48.355469 74.980469-112.640625 74.980469-181.023437 0-68.378906-26.628906-132.664063-74.980469-181.015625zm-181.019531 407.015625c-124.617188 0-226-101.382813-226-226 0-124.613282 101.382812-225.996094 226-225.996094s226 101.382812 226 226c0 124.613281-101.382812 225.996094-226 225.996094zm0 0"/>
    <path style="fill:#0096E6;" d="m422.414062 351.140625c16.105469-28.050781 25.320313-60.539063 25.320313-95.140625s-9.21875-67.089844-25.320313-95.144531c-.121093-.242188-.230468-.484375-.367187-.71875-.1875-.324219-.394531-.625-.601563-.929688-16.632812-28.324219-40.328124-52.019531-68.652343-68.652343-.300781-.207032-.601563-.414063-.921875-.601563-.238282-.136719-.484375-.246094-.726563-.367187-28.050781-16.105469-60.542969-25.320313-95.144531-25.320313-34.605469 0-67.09375 9.21875-95.148438 25.320313-.238281.121093-.480468.230468-.71875.367187-.316406.183594-.617187.390625-.917968.59375-28.324219 16.632813-52.023438 40.328125-68.660156 68.652344-.207032.308593-.414063.609375-.605469.9375-.136719.238281-.25.484375-.371094.730469-16.097656 28.050781-25.3125 60.535156-25.3125 95.128906 0 34.597656 9.214844 67.082031 25.3125 95.132812.121094.246094.234375.492188.375.734375.210937.367188.441406.71875.679687 1.0625 16.628907 28.265625 40.296876 51.914063 68.578126 68.519531.300781.207032.601562.414063.921874.597657.328126.191406.664063.363281 1 .527343 27.992188 16.003907 60.378907 25.160157 94.867188 25.160157s66.875-9.15625 94.867188-25.160157c.335937-.164062.667968-.335937 1-.527343.320312-.183594.617187-.390625.921874-.59375 28.28125-16.609375 51.949219-40.261719 68.582032-68.527344.234375-.34375.464844-.691406.675781-1.058594.136719-.234375.246094-.480469.367187-.722656zm-72.933593 36.769531-.15625-.269531c-4.144531-7.171875-13.320313-9.628906-20.492188-5.488281-7.175781 4.140625-9.632812 13.316406-5.488281 20.488281l.175781.304687c-16.242187 7.492188-33.929687 12.367188-52.519531 14.085938v-.367188c0-8.28125-6.714844-15-15-15s-15 6.71875-15 15v.367188c-18.589844-1.71875-36.273438-6.59375-52.519531-14.085938l.175781-.304687c4.144531-7.171875 1.6875-16.347656-5.488281-20.488281-7.175781-4.144532-16.351563-1.683594-20.492188 5.488281l-.15625.269531c-14.859375-10.5625-27.867187-23.566406-38.429687-38.429687l.265625-.15625c7.175781-4.140625 9.632812-13.3125 5.492187-20.488281-4.144531-7.175782-13.316406-9.636719-20.492187-5.492188l-.300781.175781c-7.496094-16.246093-12.371094-33.929687-14.085938-52.523437h.363281c8.285157 0 15-6.714844 15-15 0-8.28125-6.714843-15-15-15h-.363281c1.714844-18.589844 6.589844-36.273438 14.082031-52.519532l.308594.179688c2.363281 1.363281 4.941406 2.011719 7.484375 2.011719 5.183594 0 10.226562-2.691407 13.007812-7.507813 4.140626-7.171875 1.679688-16.347656-5.496093-20.488281l-.269531-.15625c10.5625-14.859375 23.570312-27.867187 38.433593-38.429687l.15625.269531c2.777344 4.816406 7.820313 7.503906 13.003907 7.503906 2.542968 0 5.125-.648437 7.484374-2.011719 7.175782-4.144531 9.632813-13.316406 5.492188-20.492187l-.175781-.304688c16.242187-7.492187 33.929687-12.367187 52.515625-14.082031v.363281c0 8.285157 6.71875 15 15 15 8.285156 0 15-6.714843 15-15v-.363281c18.59375 1.714844 36.277344 6.589844 52.523437 14.082031l-.175781.304688c-4.144531 7.175781-1.6875 16.347656 5.484375 20.492187 2.363281 1.363282 4.941406 2.011719 7.488281 2.011719 5.183594 0 10.226563-2.6875 13.003906-7.5l.15625-.273437c14.863282 10.5625 27.871094 23.570312 38.433594 38.433593l-.269531.15625c-7.175781 4.140625-9.636719 13.3125-5.492187 20.488281 2.777343 4.816407 7.820312 7.503907 13.003906 7.503907 2.542968 0 5.121094-.648438 7.484375-2.011719l.308593-.175781c7.492188 16.242187 12.367188 33.929687 14.082032 52.519531h-.363282c-8.285156 0-15 6.714844-15 15 0 8.28125 6.714844 15 15 15h.363282c-1.714844 18.589844-6.589844 36.277344-14.085938 52.519531l-.300781-.175781c-7.175781-4.144531-16.351563-1.683594-20.492187 5.492188-4.140626 7.175781-1.683594 16.347656 5.492187 20.488281l.269531.15625c-10.5625 14.859375-23.570312 27.867187-38.429687 38.429687zm0 0"/>
    <path style="fill:#0096E6;" d="m336.332031 240.996094h-65.332031v-81.398438c0-8.28125-6.714844-15-15-15s-15 6.71875-15 15v96.398438c0 8.285156 6.714844 15 15 15h80.332031c8.285157 0 15-6.714844 15-15 0-8.28125-6.714843-15-15-15zm0 0"/>
</svg>