<svg id="m_5" enable-background="new 0 0 64 64" viewBox="0 0 64 64"
    xmlns="http://www.w3.org/2000/svg">
    <g>
        <g>
            <path d="m42 19h-3.76c-1.466 1.827-3.714 3-6.24 3s-4.773-1.173-6.24-3h-3.76c-1.654 0-3 1.346-3 3v20c0 1.654 1.346 3 3 3h20c1.654 0 3-1.346 3-3v-20c0-1.654-1.346-3-3-3z" fill="#f0bc5e"/>
        </g>
        <g>
            <path d="m16 49v2c0 1.103.897 2 2 2h28c1.103 0 2-.897 2-2v-2c0-1.103-.897-2-2-2h-28c-1.103 0-2 .897-2 2zm2 0h4v2h-4zm16 2h-4v-2h4zm2-2h4v2h-4zm-8 2h-4v-2h4zm18.001 0h-4.001v-2h4z"/>
            <path d="m30 15.586-1.293-1.293-1.414 1.414 2.707 2.707 6.707-6.707-1.414-1.414z"/>
            <path d="m27 23h2v2h-2z"/>
            <path d="m31 25h2v-2h-1-1z"/>
            <path d="m23 23h2v2h-2z"/>
            <path d="m27 39h2v2h-2z"/>
            <path d="m31 39h2v2h-2z"/>
            <path d="m23 39h2v2h-2z"/>
            <path d="m19 27h26v2h-26z"/>
            <path d="m39 31h2v2h-2z"/>
            <path d="m31 31h2v2h-2z"/>
            <path d="m35 31h2v2h-2z"/>
            <path d="m19 35h26v2h-26z"/>
            <path d="m41 14c0-4.962-4.038-9-9-9s-9 4.038-9 9 4.038 9 9 9 9-4.038 9-9zm-9 7c-3.86 0-7-3.14-7-7s3.14-7 7-7 7 3.14 7 7-3.14 7-7 7z"/>
            <path d="m47 55c-1.654 0-3 1.346-3 3 0 .128.022.25.038.373-3.79 1.736-7.833 2.627-12.038 2.627-10.329 0-19.978-5.671-25.131-14.606l2.935.587.393-1.961-5.981-1.196-1.196 5.98 1.961.393.463-2.313c5.574 9.259 15.708 15.116 26.556 15.116 4.517 0 8.861-.962 12.931-2.837.539.516 1.266.837 2.069.837 1.654 0 3-1.346 3-3s-1.346-3-3-3zm0 4c-.551 0-1-.449-1-1s.449-1 1-1 1 .449 1 1-.449 1-1 1z"/>
            <path d="m53 50c-1.654 0-3 1.346-3 3s1.346 3 3 3 3-1.346 3-3-1.346-3-3-3zm0 4c-.551 0-1-.449-1-1s.449-1 1-1 1 .449 1 1-.449 1-1 1z"/>
            <path d="m58 44c-1.654 0-3 1.346-3 3s1.346 3 3 3 3-1.346 3-3-1.346-3-3-3zm0 4c-.551 0-1-.449-1-1s.449-1 1-1 1 .449 1 1-.449 1-1 1z"/>
            <path d="m17 9c1.654 0 3-1.346 3-3 0-.128-.022-.25-.038-.373 3.79-1.736 7.833-2.627 12.038-2.627 10.329 0 19.979 5.67 25.131 14.606l-2.935-.587-.393 1.961 5.981 1.196 1.196-5.98-1.961-.393-.463 2.313c-5.573-9.259-15.708-15.116-26.556-15.116-4.517 0-8.861.962-12.931 2.837-.539-.516-1.266-.837-2.069-.837-1.654 0-3 1.346-3 3s1.346 3 3 3zm0-4c.551 0 1 .449 1 1s-.449 1-1 1-1-.449-1-1 .449-1 1-1z"/>
            <path d="m11 14c1.654 0 3-1.346 3-3s-1.346-3-3-3-3 1.346-3 3 1.346 3 3 3zm0-4c.551 0 1 .449 1 1s-.449 1-1 1-1-.449-1-1 .449-1 1-1z"/>
            <path d="m6 20c1.654 0 3-1.346 3-3s-1.346-3-3-3-3 1.346-3 3 1.346 3 3 3zm0-4c.551 0 1 .449 1 1s-.449 1-1 1-1-.449-1-1 .449-1 1-1z"/>
        </g>
    </g>
</svg>