<svg height="512pt" viewBox="0 -23 512 512" width="512pt" xmlns="http://www.w3.org/2000/svg"><path d="m512 402.4375-74.589844-74.589844c3.84375-10.941406 5.851563-22.570312 5.851563-34.507812 0-20.785156-6.066407-40.632813-17.355469-57.53125v-201.792969l-146.96875-30.867187-131.96875 27.714843-146.96875-30.863281v327.363281l146.96875 30.863281 98.417969-20.667968c5.050781 10.714844 11.96875 20.589844 20.59375 29.210937 20.242187 20.246094 46.835937 30.371094 73.429687 30.371094 11.667969 0 23.332032-1.949219 34.464844-5.847656l74.632812 74.636719zm-482.003906-266.574219 101.972656 21.414063v68.234375l-101.972656-21.410157zm365.910156 70.335938c-29.796875-19.328125-67.40625-21.828125-99.230469-7.503907v-62.253906l99.230469 20.835938zm-129.226562-101.5625-104.714844 21.992187v-68.261718l104.714844-21.992188zm-104.714844 52.640625 104.714844-21.988282v68.234376l-104.714844 21.988281zm233.941406-30.648438-99.230469-20.839844v-68.261718l99.230469 20.839844zm-263.9375-68.261718v68.261718l-101.972656-21.414062v-68.265625zm-101.972656 176.382812 101.972656 21.414062v68.261719l-101.972656-21.414062zm131.96875 89.675781v-68.261719l90.003906-18.902343c-10.679688 16.578125-16.40625 35.886719-16.40625 56.078125 0 5.199218.378906 10.339844 1.125 15.394531zm125.226562 21.136719c-13.949218-13.949219-21.632812-32.496094-21.632812-52.222656 0-19.726563 7.683594-38.273438 21.632812-52.222656 14.394532-14.394532 33.308594-21.59375 52.222656-21.59375 18.910157 0 37.820313 7.199218 52.21875 21.59375 13.949219 13.949218 21.632813 32.496093 21.632813 52.222656 0 19.726562-7.683594 38.273437-21.632813 52.222656-28.796874 28.792969-75.648437 28.792969-104.441406 0zm125.652344 21.210938c3.558594-3.558594 6.820312-7.332032 9.785156-11.285157l46.949219 46.949219-21.066406 21.070312-46.960938-46.960937c3.9375-2.945313 7.714844-6.199219 11.292969-9.773437zm0 0"/></svg>