<svg id="Capa_1" enable-background="new 0 0 512.54 512.54" height="512" viewBox="0 0 512.54 512.54" width="512" xmlns="http://www.w3.org/2000/svg"><path d="m450.27 379.542h-29.536v-30.009c0-5.523-4.477-10-10-10s-10 4.477-10 10v30.009h-29.536c-5.523 0-10 4.477-10 10s4.477 10 10 10h29.536v30.009c0 5.523 4.477 10 10 10s10-4.477 10-10v-30.009h29.536c5.523 0 10-4.477 10-10s-4.477-10-10-10z"/><path d="m482.151 318.124c-19.077-19.077-44.44-29.583-71.418-29.583-13.63 0-26.847 2.686-39.05 7.799v-176.7c0-7.314-2.848-14.191-8.019-19.361l-92.25-92.261c-2.159-2.159-4.673-3.922-7.399-5.244-.003-.002-.007-.003-.01-.005-.128-.062-.256-.125-.385-.186-.238-.116-.479-.224-.727-.321-3.407-1.469-7.106-2.262-10.849-2.262h-222.25c-15.958 0-28.94 12.982-28.94 28.94v454.66c0 15.958 12.982 28.94 28.94 28.94h312.95c15.279 0 27.97-11.946 28.892-27.197.012-.201.018-.402.018-.603v-2.072c12.467 5.213 25.772 7.826 39.08 7.826 25.864 0 51.728-9.845 71.418-29.535 39.379-39.379 39.379-103.456-.001-142.835zm-144.609-215.685h-66.082c-1.22 0-2.212-.993-2.212-2.213v-66.089zm14.111 381.944c-.404 4.594-4.271 8.157-8.91 8.157h-312.949c-4.93 0-8.94-4.01-8.94-8.94v-454.66c0-4.93 4.01-8.94 8.94-8.94h219.454v80.226c0 12.248 9.964 22.213 22.212 22.213h80.224v185.143c-4.355 3.151-8.493 6.666-12.368 10.541-39.38 39.38-39.38 103.456 0 142.836 3.887 3.887 8.017 7.384 12.338 10.503v12.921zm116.356-37.566c-31.581 31.582-82.97 31.582-114.551 0-31.582-31.582-31.582-82.969 0-114.551 15.299-15.299 35.64-23.724 57.275-23.724s41.977 8.425 57.275 23.724c31.583 31.582 31.583 82.969.001 114.551z"/><path d="m71.32 159.38h139.414c5.523 0 10-4.477 10-10s-4.477-10-10-10h-139.414c-5.523 0-10 4.477-10 10s4.477 10 10 10z"/><path d="m245.505 319.298h-174.185c-5.523 0-10 4.477-10 10s4.477 10 10 10h174.185c5.523 0 10-4.477 10-10s-4.477-10-10-10z"/><path d="m245.505 379.271h-174.185c-5.523 0-10 4.477-10 10s4.477 10 10 10h174.185c5.523 0 10-4.477 10-10s-4.477-10-10-10z"/><path d="m301.734 259.326h-230.414c-5.523 0-10 4.477-10 10s4.477 10 10 10h230.414c5.523 0 10-4.477 10-10s-4.478-10-10-10z"/><path d="m70.32 220h180.414c5.523 0 10-4.477 10-10s-4.477-10-10-10h-180.414c-5.523 0-10 4.477-10 10s4.477 10 10 10z"/><circle cx="300.5" cy="210" r="10.005"/></svg>