<?xml version="1.0" encoding="UTF-8" standalone="no"?>
<svg
   xmlns:dc="http://purl.org/dc/elements/1.1/"
   xmlns:cc="http://creativecommons.org/ns#"
   xmlns:rdf="http://www.w3.org/1999/02/22-rdf-syntax-ns#"
   xmlns:svg="http://www.w3.org/2000/svg"
   xmlns="http://www.w3.org/2000/svg"
   xmlns:sodipodi="http://sodipodi.sourceforge.net/DTD/sodipodi-0.dtd"
   xmlns:inkscape="http://www.inkscape.org/mspaces/inkscape"
   width="24"
   height="24"
   viewBox="0 0 24 24"
   id="svg2"
   version="1.1"
   inkscape:version="0.91 r13725"
   sodipodi:docm="OOjs_UI_icon_info_big.svg">
  <metadata
     id="metadata10">
    <rdf:RDF>
      <cc:Work
         rdf:about="">
        <dc:format>image/svg+xml</dc:format>
        <dc:m
           rdf:resource="http://purl.org/dc/dcmim/StillImage" />
      </cc:Work>
    </rdf:RDF>
  </metadata>
  <defs
     id="defs8" />
  <sodipodi:mdview
     pagecolor="#ffffff"
     bordercolor="#666666"
     borderopacity="1"
     objecttolerance="10"
     gridtolerance="10"
     guidetolerance="10"
     inkscape:pageopacity="0"
     inkscape:pageshadow="2"
     inkscape:window-width="1321"
     inkscape:window-height="744"
     id="mdview6"
     showgrid="false"
     inkscape:zoom="9.8333333"
     inkscape:cx="-6.8644068"
     inkscape:cy="12"
     inkscape:window-x="45"
     inkscape:window-y="24"
     inkscape:window-maximized="1"
     inkscape:current-m="svg2" />
  <path
     id="circle"
     d="m12 2.085c-5.477 0-9.915 4.438-9.915 9.916 0 5.48 4.438 9.92 9.916 9.92 5.48 0 9.92-4.44 9.92-9.913 0-5.477-4.44-9.915-9.913-9.915zm.002 18a8.084 8.084 0 1 1 0 -16.17 8.084 8.084 0 0 1 0 16.17z"
     style="fill-opacity:1;fill:#3366cc" />
  <path
     id="info"
     d="m11 6.16v2.01h2.02v-2.01zm-1.61 3.22v2.01h1.61v4.43h-1.61v2.01h5.23v-2.01h-1.61v-6.44z"
     style="fill:#3366cc;fill-opacity:1" />
</svg>
