<?xml version="1.0"?>
<svg xmlns="http://www.w3.org/2000/svg" height="512px" version="1.1" viewBox="0 -52 512.00003 512" width="512px" class=""><g><g id="surface1">
<path d="M 0 0 L 113.292969 0 L 113.292969 113.292969 L 0 113.292969 Z M 0 0 " style="fill:#216D04" data-original="#FF73AF" class="active-path" data-old_color="#47FF00"/>
<path d="M 149.296875 0.00390625 L 512 0.00390625 L 512 113.296875 L 149.296875 113.296875 Z M 149.296875 0.00390625 " style="fill:#003435" data-original="#51FBFE" class="" data-old_color="#003536"/>
<path d="M 0 147.007812 L 113.292969 147.007812 L 113.292969 260.300781 L 0 260.300781 Z M 0 147.007812 " style="fill:#216D04" data-original="#FF73AF" class="active-path" data-old_color="#47FF00"/>
<path d="M 149.296875 147.007812 L 512 147.007812 L 512 260.300781 L 149.296875 260.300781 Z M 149.296875 147.007812 " style="fill:#003435" data-original="#51FBFE" class="" data-old_color="#003536"/>
<path d="M 0 294.011719 L 113.292969 294.011719 L 113.292969 407.308594 L 0 407.308594 Z M 0 294.011719 " style="fill:#216D04" data-original="#FF73AF" class="active-path" data-old_color="#47FF00"/>
<path d="M 149.296875 294.011719 L 512 294.011719 L 512 407.304688 L 149.296875 407.304688 Z M 149.296875 294.011719 " style="fill:#003435" data-original="#51FBFE" class="" data-old_color="#003536"/>
<path d="M 255.675781 0.00390625 L 512 0.00390625 L 512 113.296875 L 255.675781 113.296875 Z M 255.675781 0.00390625 " style="fill:#035559" data-original="#00E8F2" class="" data-old_color="#03595D"/>
<path d="M 255.675781 147.007812 L 512 147.007812 L 512 260.300781 L 255.675781 260.300781 Z M 255.675781 147.007812 " style="fill:#035559" data-original="#00E8F2" class="" data-old_color="#03595D"/>
<path d="M 255.675781 294.011719 L 512 294.011719 L 512 407.304688 L 255.675781 407.304688 Z M 255.675781 294.011719 " style="fill:#035559" data-original="#00E8F2" class="" data-old_color="#03595D"/>
</g></g> </svg>
