<svg id="m_1" enable-background="new 0 0 512 512" viewBox="0 0 512 512"
    xmlns="http://www.w3.org/2000/svg">
    <g>
        <g>
            <g>
                <g id="XMLID_456_">
                    <g id="XMLID_457_">
                        <g id="XMLID_458_">
                            <g id="XMLID_459_">
                                <g id="XMLID_460_">
                                    <g id="XMLID_472_">
                                        <g id="XMLID_473_">
                                            <g id="XMLID_474_">
                                                <g id="XMLID_475_">
                                                    <g id="XMLID_1060_">
                                                        <g id="XMLID_1061_">
                                                            <g id="XMLID_1062_">
                                                                <g id="XMLID_1063_">
                                                                    <g id="XMLID_1481_">
                                                                        <g id="XMLID_1482_">
                                                                            <circle cx="256" cy="256" fill="#704840" r="256"/>
                                                                        </g>
                                                                    </g>
                                                                </g>
                                                            </g>
                                                        </g>
                                                    </g>
                                                </g>
                                            </g>
                                        </g>
                                    </g>
                                </g>
                            </g>
                        </g>
                    </g>
                </g>
            </g>
        </g>
        <g>
            <path d="m512 256c0-.436-.014-.869-.017-1.304l-2.003-.612v-7.165l-72.221-72.221-7.429 1.095-117.092-116.898-258.267 322.042 116.9 116.9c26.352 9.166 54.655 14.163 84.129 14.163 141.385 0 256-114.615 256-256z" fill="#422420"/>
            <g>
                <path d="m437.759 419.917-127.595-38.98-22.824-111.75 22.824-133.47 127.595 38.98z" fill="#e0bfad"/>
            </g>
            <g>
                <g>
                    <g>
                        <g>
                            <path d="m182.568 419.917-127.596-38.98v-245.22l127.596 38.98 22.557 120.842z" fill="#ffe6d2"/>
                            <path d="m310.164 380.937-127.596 38.98v-245.22l127.596-38.98z" fill="#e0bfad"/>
                            <path d="m310.166 135.722v245.22l-63.801 19.49v-245.22z" fill="#c6a293"/>
                        </g>
                    </g>
                    <g>
                        <g>
                            <path d="m182.568 376.555-78.852-25.108v-156.032l78.852 25.108z" fill="#bee75e"/>
                            <path d="m310.164 335.912-127.596 40.643v-156.032l127.596-40.643z" fill="#00da80"/>
                            <path d="m310.166 179.882v156.03l-63.801 20.32v-156.03l59.73-19.02z" fill="#00a763"/>
                        </g>
                        <g>
                            <g>
                                <path d="m380.818 358.493-70.654-22.581v-156.032l70.654 22.581z" fill="#00da80"/>
                            </g>
                        </g>
                    </g>
                </g>
                <g>
                    <path d="m316.488 168.092-.005.001c11.248-14.95 17.831-33.608 17.573-53.817-.611-47.88-40.233-86.78-88.116-86.553-48.239.229-87.273 39.405-87.273 87.697 0 19.768 6.545 38.005 17.58 52.672l-.005-.001.359.451c.768 1.007 1.552 2.002 2.362 2.974l51.088 64.318c8.341 10.502 24.288 10.502 32.629 0l51.088-64.318c.81-.973 1.594-1.967 2.362-2.974z" fill="#ffcb00"/>
                    <path d="m334.055 114.272c.26 20.21-6.32 38.87-17.57 53.82l-.36.45c-.76 1.01-1.55 2-2.36 2.98l-3.6 4.53-4.07 5.13-43.42 54.65c-4.17 5.25-10.24 7.88-16.31 7.88v-215.99c47.7.01 87.081 38.82 87.69 86.55z" fill="#ff9d21"/>
                    <ellipse cx="246.366" cy="113.206" fill="#ff4a4a" rx="31.237" ry="31.237" transform="matrix(.707 -.707 .707 .707 -7.89 207.364)"/>
                    <g>
                        <path d="m277.605 113.202c0 17.26-13.99 31.24-31.24 31.24v-62.47c17.251 0 31.24 13.98 31.24 31.23z" fill="#d0004f"/>
                    </g>
                </g>
            </g>
        </g>
    </g>
</svg>