<?xml version="1.0"?>
<svg xmlns="http://www.w3.org/2000/svg" xmlns:xlink="http://www.w3.org/1999/xlink" version="1.1" id="Capa_1" x="0px" y="0px" viewBox="0 0 512.001 512.001" style="enable-background:new 0 0 512.001 512.001;" xml:space="preserve" width="512px" height="512px"><g><path style="fill:#93D632;" d="M496.578,0H15.423C7.037,0,0.449,6.587,0.449,14.974v481.155c0,8.384,6.587,14.974,14.974,14.974  h481.155c8.386,0,14.974-6.589,14.974-14.974V14.974C511.552,6.587,504.963,0,496.578,0z" data-original="#93D632"/><path style="fill:#78B22A;" d="M511.552,14.974v481.155c0,8.384-6.587,14.974-14.974,14.974H256.001V0h240.578  C504.963,0,511.552,6.587,511.552,14.974z" data-original="#78B22A"/><path style="fill:#FCF2B6;" d="M404.639,66.782c-15.871-8.984-30.946-19.764-42.026-32.642C343.146,12.577,314.996,0,285.348,0  H273.37c-5.989,0-11.68,0.598-17.37,1.797c-18.268,2.994-35.637,11.38-51.509,24.257c-23.36,19.166-52.408,31.144-83.854,34.738  C52.658,68.579,0.449,127.076,0.449,195.656v73.969c0,35.637,10.182,70.777,28.45,100.724s46.219,55.402,79.46,73.969  c17.967,9.884,33.242,22.461,45.221,37.137c17.668,21.861,40.729,30.545,64.985,30.545c12.277,0,25.157-2.395,37.434-6.288  c16.171-5.092,32.044-12.877,46.419-22.163c2.096-1.197,4.493-2.994,6.889-4.791c42.524-28.45,88.144-28.151,94.434-27.851  c0.897,0.299,2.094,0.299,2.994,0.299c57.799,0,104.816-48.016,104.816-105.814c0-13.476,0-103.919,0-103.919  C511.552,169.902,471.421,103.917,404.639,66.782z" data-original="#FCF2B6"/><path style="fill:#FAD17F;" d="M511.552,241.475c0,0,0,90.442,0,103.919c0,57.799-47.017,105.814-104.816,105.814  c-0.899,0-2.096,0-2.994-0.299c-6.29-0.299-51.909-0.6-94.434,27.851c-2.397,1.797-4.793,3.594-6.889,4.791  c-14.374,9.286-30.247,17.07-46.419,22.163V1.797C261.691,0.598,267.381,0,273.371,0h11.978c29.648,0,57.798,12.577,77.265,34.14  c11.081,12.877,26.155,23.657,42.026,32.642C471.421,103.917,511.552,169.902,511.552,241.475z" data-original="#FAD17F"/><path style="fill:#93D632;" d="M389.965,92.836c-18.867-10.481-36.336-23.358-49.813-38.631  c-13.777-15.273-33.842-24.257-54.805-24.257H273.37c-5.69,0-11.68,0.897-17.37,2.395c-11.38,2.696-22.461,8.686-32.644,17.07  c-27.851,22.461-61.989,36.836-99.423,41.028c-52.707,6.29-93.537,51.909-93.537,105.216v73.969  c0,60.495,35.138,116.895,92.637,148.639c21.264,11.68,39.231,26.653,53.605,44.323c21.863,26.652,54.504,21.262,79.362,11.38  c17.67-6.889,31.144-16.173,34.14-18.269c0.598-0.598,1.197-1.197,2.096-1.797c42.825-28.449,93.535-35.037,114.498-32.342v-0.299  c41.327,0,74.869-34.539,74.869-75.867c0,0,0-94.335,0-103.919C481.604,180.982,447.463,124.58,389.965,92.836z" data-original="#93D632"/><path style="fill:#78B22A;" d="M481.604,241.475c0,9.583,0,103.919,0,103.919c0,41.327-33.541,75.867-74.869,75.867v0.299  c-20.963-2.696-71.674,3.893-114.498,32.342c-0.899,0.6-1.498,1.199-2.096,1.797c-2.996,2.096-16.471,11.38-34.14,18.269V32.342  c5.69-1.497,11.68-2.395,17.371-2.395h11.978c20.963,0,41.028,8.984,54.805,24.257c13.476,15.273,30.946,28.151,49.813,38.631  C447.463,124.58,481.604,180.982,481.604,241.475z" data-original="#78B22A"/><path style="fill:#FCF2B6;" d="M256.001,89.842c-107.213,0-195.656,74.967-195.656,165.709c0,90.74,88.444,165.709,195.656,165.709  s195.656-74.969,195.656-165.709C451.657,164.81,363.212,89.842,256.001,89.842z" data-original="#FCF2B6"/><path style="fill:#FAD17F;" d="M451.657,255.551c0,90.74-88.444,165.709-195.656,165.709V89.842  C363.212,89.842,451.657,164.81,451.657,255.551z" data-original="#FAD17F"/><path style="fill:#93D632;" d="M256.001,119.79c-90.742,0-165.709,61.491-165.709,135.762c0,74.269,74.967,135.762,165.709,135.762  S421.71,329.82,421.71,255.551C421.71,181.281,346.741,119.79,256.001,119.79z" data-original="#93D632"/><path style="fill:#78B22A;" d="M421.71,255.551c0,74.269-74.967,135.762-165.709,135.762V119.79  C346.741,119.79,421.71,181.281,421.71,255.551z" data-original="#78B22A"/><path style="fill:#FCF2B6;" d="M256.001,151.633c-4.791-0.598-9.884-0.897-14.974-0.897c-66.185,0-119.79,47.017-119.79,104.816  s53.605,104.816,119.79,104.816c5.09,0,10.183-0.299,14.974-0.899c58.995-6.288,104.816-50.611,104.816-103.917  C360.816,202.244,314.996,157.923,256.001,151.633z" data-original="#FCF2B6"/><path style="fill:#FAD17F;" d="M360.816,255.551c0,53.305-45.821,97.629-104.816,103.917V151.633  C314.996,157.923,360.816,202.244,360.816,255.551z" data-original="#FAD17F"/><path style="fill:#93D632;" d="M256.001,181.88c-4.791-0.897-9.884-1.197-14.974-1.197c-49.414,0-89.842,33.541-89.842,74.869  s40.428,74.869,89.842,74.869c5.09,0,10.183-0.299,14.974-1.199c42.524-5.988,74.869-36.535,74.869-73.67  S298.525,187.87,256.001,181.88z" data-original="#93D632"/><path style="fill:#78B22A;" d="M330.869,255.551c0,37.135-32.344,67.681-74.869,73.67V181.88  C298.525,187.87,330.869,218.417,330.869,255.551z" data-original="#78B22A"/><path style="fill:#FCF2B6;" d="M256.001,222.31c-7.786-7.189-18.268-11.679-29.947-11.679c-24.857,0-44.921,20.064-44.921,44.921  c0,24.855,20.064,44.921,44.921,44.921c11.679,0,22.161-4.493,29.947-11.68c9.284-8.087,14.974-20.064,14.974-33.242  S265.283,230.394,256.001,222.31z" data-original="#FCF2B6"/><path style="fill:#FAD17F;" d="M270.974,255.551c0,13.177-5.69,25.155-14.974,33.242V222.31  C265.283,230.394,270.974,242.374,270.974,255.551z" data-original="#FAD17F"/><path style="fill:#93D632;" d="M226.053,240.578c-8.262,0-14.974,6.712-14.974,14.974c0,8.262,6.712,14.974,14.974,14.974  c8.261,0,14.974-6.712,14.974-14.974C241.027,247.29,234.315,240.578,226.053,240.578z" data-original="#93D632"/></g> </svg>
