<?xml version="1.0"?>
<svg xmlns="http://www.w3.org/2000/svg" xmlns:xlink="http://www.w3.org/1999/xlink" version="1.1" id="Capa_1" x="0px" y="0px" viewBox="0 0 56 56" style="enable-background:new 0 0 56 56;" xml:space="preserve" width="512px" height="512px" class=""><g><g>
	<g>
		<mgon style="fill:#4FBA6E;" ms="18.5,21.243 2.756,5.499 0.5,6 0.5,49 2.599,48.534 18.5,32.632   " data-original="#4FBA6E" class=""/>
		<mgon style="fill:#48A0DC;" ms="9.872,46.917 18.5,45 18.5,38.289   " data-original="#48A0DC" class=""/>
		<mgon style="fill:#4FBA6E;" ms="18.5,2 7.384,4.47 18.5,15.586   " data-original="#4FBA6E" class=""/>
		<mgon style="fill:#4FBA6E;" ms="49.949,1.184 35.5,6 35.5,15.632   " data-original="#4FBA6E" class=""/>
		<mgon style="fill:#48A0DC;" ms="35.5,21.289 35.5,48 53.5,41 53.5,3.289   " data-original="#48A0DC" class=""/>
		<mgon style="fill:#4AA461;" ms="27.023,24.109 35.5,15.632 35.5,6 18.5,2 18.5,15.586   " data-original="#4AA461" class=""/>
		<mgon style="fill:#4AA461;" ms="18.5,21.243 18.5,32.632 24.195,26.938   " data-original="#4AA461" class=""/>
		<mgon style="fill:#51A2C9;" ms="18.5,38.289 18.5,45 35.5,48 35.5,21.289   " data-original="#51A2C9" class=""/>
		<mgon style="fill:#F3D55A;" ms="18.5,15.586 7.384,4.47 2.756,5.499 18.5,21.243   " data-original="#F3D55A" class=""/>
		<mgon style="fill:#F3D55A;" ms="18.5,32.632 2.599,48.534 9.872,46.917 18.5,38.289   " data-original="#F3D55A" class=""/>
		<mgon style="fill:#F3D55A;" ms="35.5,21.289 53.5,3.289 53.5,0 49.949,1.184 35.5,15.632   " data-original="#F3D55A" class=""/>
		<mgon style="fill:#DCBD56;" ms="27.023,24.109 18.5,15.586 18.5,21.243 24.195,26.938 18.5,32.632 18.5,38.289     35.5,21.289 35.5,15.632   " data-original="#DCBD56" class=""/>
	</g>
	<g>
	<g transform="scale(0.06) translate(250 150)" >
	<path  style="fill:#ff0707;" d="M472.988,34.752c-4.405-2.985-10.007-3.585-14.944-1.6c-1.024,0.416-106.848,42.048-195.2,0.384  C161.724-14.24,46.908,31.2,42.044,33.184C36.012,35.632,32.064,41.49,32.06,48v256c-0.005,8.837,7.154,16.004,15.991,16.009  c2.054,0.001,4.088-0.393,5.993-1.161c1.056-0.448,106.848-42.08,195.2-0.384c32.502,14.837,67.891,22.28,103.616,21.792  c40.023-0.23,79.695-7.476,117.216-21.408c6.043-2.452,9.993-8.326,9.984-14.848V48C480.05,42.683,477.4,37.719,472.988,34.752z" data-original="#FFC107"/>
	<path d="M352.86,340.256c-35.725,0.488-71.114-6.955-103.616-21.792c-88.672-41.856-194.144,0-195.2,0.384  c-8.2,3.323-17.541-0.632-20.864-8.832s0.632-17.541,8.832-20.864c4.832-1.92,119.712-47.392,220.8,0.384  c59.367,23.136,125.053,24.271,185.184,3.2V70.208C382.875,91.085,312.48,88.343,249.18,62.464  c-88.672-41.856-194.144,0-195.2,0.384c-8.2,3.323-17.541-0.632-20.864-8.832s0.632-17.541,8.832-20.864  c4.832-1.952,119.712-47.36,220.8,0.384c88.672,41.792,194.112,0,195.2-0.384c8.166-3.376,17.523,0.508,20.899,8.675  c0.809,1.957,1.221,4.056,1.213,6.173v256c0.009,6.522-3.941,12.396-9.984,14.848C432.556,332.78,392.883,340.026,352.86,340.256z" data-original="#000000" class="active-path" style="fill:#000000"/><path d="M48.06,512c-8.837,0-16-7.163-16-16V16c0-8.837,7.163-16,16-16s16,7.163,16,16v480C64.06,504.837,56.897,512,48.06,512z" data-original="#000000" class="active-path" style="fill:#000000"/></g>
		
	</g>
</g></g> </svg>
