<?xml version="1.0" encoding="UTF-8" standalone="no"?> <svg width="24" height="24" viewBox="0 0 24 24" fill="none" xmlns="http://www.w3.org/2000/svg">
<path fill-rule="evenodd" clip-rule="evenodd" d="M19.4999 5.65001C19.2199 5.65001 18.9999 5.87001 18.9999 6.15001V12H16.9999V3.42001C16.9999 3.14001 16.7799 2.92001 16.4999 2.92001C16.2199 2.92001 15.9999 3.14001 15.9999 3.42001V12H13.9999V2.51001C13.9999 2.23001 13.7799 2.01001 13.4999 2.01001C13.2199 2.01001 12.9999 2.23001 12.9999 2.51001V12H10.9999V4.79001C10.9999 4.51001 10.7799 4.29001 10.4999 4.29001C10.2199 4.29001 9.99989 4.52001 9.99989 4.79001V17.66L4.64989 14.83L4.13989 15.28L9.99989 21.38C10.3799 21.77 10.8999 22 11.4399 22H17.9999C19.0999 22 19.9999 21.1 19.9999 20V6.15001C19.9999 5.87001 19.7799 5.65001 19.4999 5.65001Z" fill="#FFF176"/>
<path fill-rule="evenodd" clip-rule="evenodd" d="M19.5 3.65001C19.33 3.65001 19.16 3.67001 19 3.70001V3.42001C19 2.04001 17.88 0.92001 16.5 0.92001C16.17 0.92001 15.85 0.98001 15.56 1.10001C15.11 0.44001 14.35 0.0100098 13.5 0.0100098C12.18 0.0100098 11.09 1.04001 11.01 2.34001C10.85 2.31001 10.68 2.29001 10.5 2.29001C9.12001 2.29001 8.00001 3.41001 8.00001 4.79001V14.34L5.59001 13.06C4.86001 12.67 3.95001 12.78 3.33001 13.33L1.26001 15.16L8.56001 22.77C9.31001 23.55 10.36 24 11.45 24H18C20.21 24 22 22.21 22 20V6.15001C22 4.77001 20.88 3.65001 19.5 3.65001ZM20 20C20 21.1 19.1 22 18 22H11.45C10.91 22 10.38 21.78 10.01 21.38L4.15001 15.27L4.66001 14.82L10 17.66V4.79001C10 4.51001 10.22 4.29001 10.5 4.29001C10.78 4.29001 11 4.52001 11 4.79001V12H13V2.51001C13 2.23001 13.22 2.01001 13.5 2.01001C13.78 2.01001 14 2.23001 14 2.51001V12H16V3.42001C16 3.14001 16.22 2.92001 16.5 2.92001C16.78 2.92001 17 3.14001 17 3.42001V12H19V6.15001C19 5.87001 19.22 5.65001 19.5 5.65001C19.78 5.65001 20 5.87001 20 6.15001V20Z" fill="#F68217"/>
</svg>
