<?xml version="1.0"?>
<svg xmlns="http://www.w3.org/2000/svg" xmlns:xlink="http://www.w3.org/1999/xlink" version="1.1" id="m_1" x="0px" y="0px" viewBox="0 0 374 374" style="enable-background:new 0 0 374 374;" xml:space="preserve" width="512px" height="512px"><g><g>
	<rect y="53.43" style="fill:#C3C6C8;" width="374" height="267.139" data-original="#C3C6C8"/>
	<g>
		<g>
			<rect x="26.715" y="80.144" style="fill:#005FAD;" width="53.43" height="53.428" data-original="#005FAD"/>
			<rect x="80.145" y="80.144" style="fill:#0071CE;" width="53.428" height="53.428" data-original="#0071CE"/>
			<rect x="133.572" y="80.144" style="fill:#5E96DC;" width="53.428" height="53.428" data-original="#5E96DC"/>
			<rect x="26.715" y="133.572" style="fill:#4F7FBA;" width="53.43" height="53.429" data-original="#4F7FBA"/>
			<rect x="80.145" y="133.572" style="fill:#005FAD;" width="53.428" height="53.429" data-original="#005FAD"/>
			<rect x="80.145" y="187.001" style="fill:#5E96DC;" width="53.428" height="53.429" data-original="#5E96DC"/>
			<rect x="133.572" y="133.572" style="fill:#0071CE;" width="53.428" height="53.429" data-original="#0071CE"/>
			<rect x="187" y="80.144" style="fill:#0071CE;" width="53.428" height="53.428" data-original="#0071CE"/>
			<rect x="240.428" y="80.144" style="fill:#005FAD;" width="53.43" height="53.428" data-original="#005FAD"/>
			<rect x="293.857" y="80.144" style="fill:#0071CE;" width="53.428" height="53.428" data-original="#0071CE"/>
			<rect x="240.428" y="133.572" style="fill:#4F7FBA;" width="53.43" height="53.429" data-original="#4F7FBA"/>
			<rect x="293.857" y="133.572" style="fill:#005FAD;" width="53.428" height="53.429" data-original="#005FAD"/>
			<rect x="293.857" y="187.001" style="fill:#5E96DC;" width="53.428" height="53.429" data-original="#5E96DC"/>
		</g>
		<rect x="26.715" y="187.001" style="fill:#00BD5E;" width="53.43" height="53.429" data-original="#00BD5E"/>
		<rect x="26.715" y="240.429" style="fill:#00BD5E;" width="53.43" height="53.428" data-original="#00BD5E"/>
		<rect x="80.145" y="240.429" style="fill:#009638;" width="53.428" height="53.428" data-original="#009638"/>
		<rect x="133.572" y="240.429" style="fill:#009638;" width="53.428" height="53.428" data-original="#009638"/>
		<rect x="187" y="240.429" style="fill:#00BD5E;" width="53.428" height="53.428" data-original="#00BD5E"/>
		<rect x="240.428" y="240.429" style="fill:#00BD5E;" width="53.43" height="53.428" data-original="#00BD5E"/>
		<rect x="293.857" y="240.429" style="fill:#009638;" width="53.428" height="53.428" data-original="#009638"/>
		<rect x="133.572" y="187.001" style="fill:#00BD5E;" width="53.428" height="53.429" data-original="#00BD5E"/>
		<rect x="187" y="187.001" style="fill:#009638;" width="53.428" height="53.429" data-original="#009638"/>
		<rect x="187" y="133.572" style="fill:#00BD5E;" width="53.428" height="53.429" data-original="#00BD5E"/>
		<rect x="240.428" y="187.001" style="fill:#00BD5E;" width="53.43" height="53.429" data-original="#00BD5E"/>
	</g>
</g></g> </svg>
