<?xml version="1.0" encoding="iso-8859-1"?>
<!-- Generator: Adobe Illustrator 19.0.0, SVG Export Plug-In . SVG Version: 6.00 Build 0)  -->
<svg version="1.1" id="Capa_1" xmlns="http://www.w3.org/2000/svg" xmlns:xlink="http://www.w3.org/1999/xlink" x="0px" y="0px"
	 viewBox="0 0 512.029 512.029" style="enable-background:new 0 0 512.029 512.029;" xml:space="preserve">
<path style="fill:#FFC107;" d="M192.014,0C86.02,0.106,0.12,86.005,0.014,192c0,133.088,173.312,307.936,180.672,315.328
	c6.24,6.256,16.371,6.269,22.627,0.029c0.01-0.01,0.019-0.019,0.029-0.029c7.36-7.392,180.672-182.24,180.672-315.328
	C383.908,86.005,298.009,0.106,192.014,0z"/>
<circle style="fill:#FAFAFA;" cx="192.014" cy="192" r="96"/>
<circle style="fill:#2196F3;" cx="384.014" cy="384" r="128"/>
<path d="M192.014,512c-4.246,0.008-8.322-1.673-11.328-4.672C173.326,499.936,0.014,325.088,0.014,192c0-106.039,85.961-192,192-192
	s192,85.961,192,192c0.044,6.569-0.459,13.13-1.504,19.616c-1.604,8.69-9.949,14.434-18.639,12.83
	c-8.497-1.568-14.214-9.6-12.913-18.142c0.739-4.732,1.092-9.515,1.056-14.304c0-88.366-71.634-160-160-160s-160,71.634-160,160
	c0,101.664,121.792,240,160,280.864c5.536-5.952,12.8-13.92,21.216-23.52c5.806-6.663,15.913-7.358,22.576-1.552
	c6.663,5.806,7.358,15.913,1.552,22.576c-19.968,22.88-34.016,36.96-34.016,36.96C200.336,510.327,196.261,512.008,192.014,512z"/>
<path d="M192.014,288c-53.019,0-96-42.981-96-96s42.981-96,96-96s96,42.981,96,96S245.034,288,192.014,288z M192.014,128
	c-35.346,0-64,28.654-64,64s28.654,64,64,64s64-28.654,64-64S227.361,128,192.014,128z"/>
<path d="M384.014,512c-70.692,0-128-57.308-128-128s57.308-128,128-128s128,57.308,128,128S454.707,512,384.014,512z M384.014,288
	c-53.019,0-96,42.981-96,96s42.981,96,96,96s96-42.981,96-96S437.034,288,384.014,288z"/>
<path d="M344.014,440c-8.836-0.124-15.898-7.387-15.774-16.223c0.058-4.111,1.696-8.041,4.574-10.977l80-80
	c6.256-6.256,16.4-6.256,22.656,0s6.256,16.4,0,22.656l-80,80C352.412,438.44,348.287,440.076,344.014,440z"/>
<path d="M424.014,440c-4.22-0.06-8.246-1.785-11.2-4.8l-80-80c-5.302-7.069-3.869-17.098,3.2-22.4c5.689-4.267,13.511-4.267,19.2,0
	l80,80c6.256,6.24,6.269,16.371,0.029,22.627c-3.009,3.016-7.096,4.708-11.357,4.701L424.014,440z"/>
<g>
</g>
<g>
</g>
<g>
</g>
<g>
</g>
<g>
</g>
<g>
</g>
<g>
</g>
<g>
</g>
<g>
</g>
<g>
</g>
<g>
</g>
<g>
</g>
<g>
</g>
<g>
</g>
<g>
</g>
</svg>
