<svg id="Capa_1" enable-background="new 0 0 512 512" viewBox="0 0 512 512"
    xmlns="http://www.w3.org/2000/svg">
    <g>
        <g>
            <g>
                <g>
                    <g>
                        <path d="m430.787 109.373h-22.825c-11.699 0-21.183-9.487-21.183-21.19v-54.08l-14.422-30.948c-4.403-2.004-9.223-3.07-14.153-3.07h-293.645c-18.871 0-34.168 15.303-34.168 34.179v367.468h400.397v-292.359z" fill="#f4fbff"/>
                        <path d="m416.365 109.373v292.359h65.245v-278.201c0-4.932-1.066-9.754-3.069-14.158z" fill="#e4f6ff"/>
                        <path d="m471.602 99.362-89.238-89.266c-2.922-2.923-6.318-5.261-10.008-6.941v85.028c0 11.703 9.484 21.19 21.183 21.19h85c-1.678-3.69-4.015-7.088-6.937-10.011z" fill="#e28086"/>
                    </g>
                    <g>
                        <g>
                            <g>
                                <path d="m197.771 205.39h-92.08c-9.97 0-18.052-8.082-18.052-18.052v-114.228c0-9.97 8.082-18.052 18.052-18.052h92.08c9.97 0 18.052 8.082 18.052 18.052v114.228c0 9.97-8.082 18.052-18.052 18.052z" fill="#bed8fb"/>
                                <path d="m151.731 147.718c-29.192 0-54.04 18.578-63.391 44.556 2.15 7.567 9.094 13.116 17.348 13.116h92.086c8.254 0 15.199-5.549 17.348-13.116-9.352-25.978-34.199-44.556-63.391-44.556z" fill="#407093"/>
                            </g>
                        </g>
                        <g>
                            <g>
                                <path d="m424.361 201.558h-150.161c-4.268 0-7.726-3.459-7.726-7.726s3.459-7.726 7.726-7.726h150.161c4.268 0 7.726 3.459 7.726 7.726s-3.458 7.726-7.726 7.726z" fill="#407093"/>
                            </g>
                            <g>
                                <path d="m424.361 157.209h-150.161c-4.268 0-7.726-3.459-7.726-7.726s3.459-7.726 7.726-7.726h150.161c4.268 0 7.726 3.459 7.726 7.726.001 4.267-3.458 7.726-7.726 7.726z" fill="#407093"/>
                            </g>
                        </g>
                    </g>
                </g>
                <path d="m461.308 487.279v-182.833c0-13.123-10.638-23.761-23.761-23.761h-257.484c-9.303 0-18.157-3.997-24.31-10.974l-12.544-14.223c-6.153-6.977-15.008-10.974-24.31-10.974h-95.138c-13.123 0-23.761 10.639-23.761 23.762v219.003c0 13.606 11.03 24.636 24.636 24.636h412.037c13.606 0 24.635-11.03 24.635-24.636z" fill="#ffe07d"/>
                <g fill="#ffd064">
                    <path d="m77.97 255.488 12.543 14.223c6.153 6.977 15.008 10.974 24.311 10.974h65.238c-9.303 0-18.157-3.997-24.31-10.974l-12.544-14.223c-6.153-6.977-15.008-10.974-24.31-10.974h-65.238c9.303 0 18.157 3.997 24.31 10.974z"/>
                    <path d="m488.239 280.685h-65.239c13.123 0 23.761 10.638 23.761 23.761v182.832c0 13.606-11.03 24.636-24.636 24.636h65.238c13.606 0 24.636-11.03 24.636-24.636v-182.832c.001-13.123-10.637-23.761-23.76-23.761z"/>
                </g>
            </g>
            <g>
                <ellipse cx="151.731" cy="125.734" fill="#365e7d" rx="28.749" ry="28.759"/>
            </g>
        </g>
    </g>
</svg>