<svg viewBox="0 0 512 512" xmlns="http://www.w3.org/2000/svg"><path d="m35.75 86.5h30v334.5h-30zm0 0" fill="#c8c6cd"/><path d="m446.25 86.5h30v334.5h-30zm0 0" fill="#aeadb3"/><path d="m86.5 35.75h339v30h-339zm0 0" fill="#c8c6cd"/><path d="m86.5 446.25h339v30h-339zm0 0" fill="#c8c6cd"/><path d="m0 0h101.5v101.5h-101.5zm0 0" fill="#00e8f2"/><path d="m0 410.5h101.5v101.5h-101.5zm0 0" fill="#00e8f2"/><path d="m381.441406 317.039062-124.203125-2.367187-85.257812 90.328125.328125-285.28125.011718-7.277344zm0 0" fill="#ff7a53"/><path d="m381.441406 317.039062-124.203125-2.367187-84.917969-202.230469zm0 0" fill="#ff4f19"/><path d="m256 35.75h169.5v30h-169.5zm0 0" fill="#aeadb3"/><path d="m256 446.25h169.5v30h-169.5zm0 0" fill="#aeadb3"/><g fill="#00cef5"><path d="m410.5 0h101.5v101.5h-101.5zm0 0"/><path d="m410.5 410.5h101.5v101.5h-101.5zm0 0"/></g></svg>