<?xml version="1.0" encoding="iso-8859-1"?>
<!-- Generator: Adobe Illustrator 19.0.0, SVG Export Plug-In . SVG Version: 6.00 Build 0)  -->
<svg version="1.1" id="m_1" xmlns="http://www.w3.org/2000/svg" xmlns:xlink="http://www.w3.org/1999/xlink" x="0px" y="0px"
	 viewBox="0 0 512 512" style="enable-background:new 0 0 512 512;" xml:space="preserve">
<path style="fill:#E6EDFE;" d="M511.552,493.362l-64-256C445.883,230.685,439.883,226,433,226H79
	c-6.883,0-12.883,4.685-14.552,11.362l-64,256c-1.12,4.481-0.113,9.229,2.729,12.869C6.02,509.872,10.381,512,15,512h482
	c4.619,0,8.98-2.128,11.823-5.769C511.666,502.59,512.672,497.843,511.552,493.362z"/>
<path style="fill:#D9E1F1;" d="M447.552,237.362C445.883,230.685,439.883,226,433,226H256v286h241c4.619,0,8.98-2.128,11.823-5.769
	c2.842-3.641,3.849-8.388,2.729-12.869L447.552,237.362z"/>
<mgon style="fill:#87D92B;" ms="477.79,482 34.21,482 42.35,449.43 87.32,269.54 90.71,256 421.29,256 424.68,269.54 "/>
<mgon style="fill:#7FCC29;" ms="256,256 256,482 477.79,482 424.68,269.54 421.29,256 "/>
<mgon style="fill:#FFDD99;" ms="277.21,417 342.22,482 299.78,482 256,438.22 176,358.21 52.22,482 34.21,482 42.35,449.43 
	154.79,337 87.32,269.54 90.71,256 116.22,256 256,395.79 395.78,256 421.29,256 424.68,269.54 "/>
<path style="fill:#F23051;" d="M256,0c-61.21,0-111,49.79-111,111c0,33.05,14.4,63.84,39.63,85.01l58.01,113.8
	c2.56,5.03,7.72,8.19,13.36,8.19s10.8-3.16,13.36-8.19l58.01-113.8C352.6,174.84,367,144.05,367,111C367,49.79,317.21,0,256,0z
	 M256,158c-25.92,0-47-21.08-47-47s21.08-47,47-47c25.92,0,47,21.08,47,47S281.92,158,256,158z"/>
<path style="fill:#D92C48;" d="M367,111c0,33.05-14.4,63.84-39.63,85.01l-58.01,113.8c-2.56,5.03-7.72,8.19-13.36,8.19V158
	c25.92,0,47-21.08,47-47s-21.08-47-47-47V0C317.21,0,367,49.79,367,111z"/>
<mgon style="fill:#FFD580;" ms="277.21,417 342.22,482 299.78,482 256,438.22 256,395.79 395.78,256 421.29,256 
	424.68,269.54 "/>
<g>
</g>
<g>
</g>
<g>
</g>
<g>
</g>
<g>
</g>
<g>
</g>
<g>
</g>
<g>
</g>
<g>
</g>
<g>
</g>
<g>
</g>
<g>
</g>
<g>
</g>
<g>
</g>
<g>
</g>
</svg>
