<?xml version="1.0"?>
<svg xmlns="http://www.w3.org/2000/svg" height="512px" viewBox="0 0 512.00021 512" width="512px"><g><path d="m415.195312 119.082031-242.035156 240.527344-21.195312-21.195313 242.035156-240.527343zm0 0" fill="#c6e2e7" data-original="#C6E2E7"/><path d="m415.195312 119.082031-242.035156 240.527344-10.597656-10.597656 242.035156-240.527344zm0 0" fill="#a8d3d8" data-original="#A8D3D8"/><path d="m400.75 436.554688 59.769531 59.773437c-33.488281 15.683594-74.609375 10.171875-102.164062-17.382813-27.550781-27.554687-33.0625-68.675781-17.378907-102.164062l-206.183593-206.183594c-33.488281 15.683594-74.609375 10.171875-102.164063-17.378906-27.554687-27.554688-33.066406-68.675781-17.378906-102.164062l59.769531 59.769531 42.390625-42.390625-59.769531-59.769532c33.488281-15.6875 74.609375-10.175781 102.160156 17.378907 27.554688 27.554687 33.066407 68.675781 17.382813 102.164062l206.183594 206.183594c33.488281-15.683594 74.609374-10.171875 102.164062 17.382813 27.554688 27.554687 33.066406 68.671874 17.378906 102.164062l-59.769531-59.773438zm0 0" fill="#deecf1" data-original="#DEECF1"/><path d="m400.75 436.554688 59.769531 59.773437c-33.488281 15.683594-74.609375 10.171875-102.164062-17.382813-27.550781-27.554687-33.0625-68.675781-17.378907-102.164062l-104.230468-101.953125 42.390625-42.390625 104.230469 101.957031c33.488281-15.6875 74.609374-10.175781 102.164062 17.378907 27.554688 27.554687 33.066406 68.675781 17.378906 102.164062l-59.769531-59.773438zm0 0" fill="#c6e2e7" data-original="#C6E2E7"/><path d="m512 42.390625-107.402344 108.484375-42.390625-42.390625 107.402344-108.484375zm0 0" fill="#deecf1" data-original="#DEECF1"/><path d="m404.597656 150.875-21.195312-21.195312 107.402344-108.484376 21.195312 21.195313zm0 0" fill="#c6e2e7" data-original="#C6E2E7"/><path d="m236.746094 338.414062-159.964844 159.964844c-17.589844 17.59375-45.992188 17.59375-63.585938 0-17.59375-17.589844-17.59375-45.992187 0-63.585937l159.964844-159.964844zm0 0" fill="#ff7816" data-original="#FF7816"/><path d="m236.746094 338.414062-159.964844 159.964844c-17.589844 17.59375-45.992188 17.59375-63.585938 0l191.757813-191.757812zm0 0" fill="#ff4b00" data-original="#FF4B00"/></g> </svg>
