<?xml version="1.0" encoding="iso-8859-1"?>
<!-- Generator: Adobe Illustrator 19.0.0, SVG Export Plug-In . SVG Version: 6.00 Build 0)  -->
<svg version="1.1" id="Capa_1" xmlns="http://www.w3.org/2000/svg" xmlns:xlink="http://www.w3.org/1999/xlink" x="0px" y="0px"
	 viewBox="0 0 512 512" style="enable-background:new 0 0 512 512;" xml:space="preserve">
<path style="fill:#EEEFF2;" d="M509.488,458.177L337.761,298.167c-3.152-2.937-8.065-2.85-11.111,0.196l-28.286,28.286
	c-3.046,3.046-3.133,7.959-0.196,11.111l160.011,171.727c3.044,3.267,8.352,3.361,11.511,0.203l40.003-40.003
	C512.849,466.53,512.753,461.22,509.488,458.177z"/>
<mgon style="fill:#FFCF1A;" ms="388.554,345.495 345.495,388.554 366.72,411.332 411.333,366.719 "/>
<path style="fill:#EF5830;" d="M509.488,458.177l-98.156-91.458l-44.613,44.613l91.458,98.155c3.044,3.267,8.353,3.361,11.511,0.203
	l40.003-40.003C512.849,466.53,512.753,461.22,509.488,458.177z"/>
<path style="fill:#66708D;" d="M192.013,0C86.137,0,0,86.137,0,192.013s86.137,192.013,192.013,192.013
	s192.013-86.137,192.013-192.013S297.889,0,192.013,0z"/>
<path style="fill:#556080;" d="M216.015,376.025c-105.876,0-192.013-86.137-192.013-192.013
	c0-80.278,49.527-149.195,119.625-177.833C61.098,27.682,0,102.845,0,192.013c0,105.876,86.137,192.013,192.013,192.013
	c25.598,0,50.035-5.048,72.388-14.18C248.937,373.875,232.723,376.025,216.015,376.025z"/>
<path style="fill:#DDDFE6;" d="M192.013,40.003c-83.819,0-152.01,68.192-152.01,152.01s68.192,152.01,152.01,152.01
	s152.01-68.192,152.01-152.01S275.832,40.003,192.013,40.003z"/>
<path style="fill:#EEEFF2;" d="M192.013,56.004c-74.995,0-136.009,61.013-136.009,136.009s61.013,136.009,136.009,136.009
	s136.009-61.013,136.009-136.009S267.009,56.004,192.013,56.004z"/>
<path style="fill:#FFCF1A;" d="M192.013,72.005c-52.939,0-96.006,43.068-96.006,96.006c0,75.214,87.573,139.768,91.3,142.479
	c2.775,2.018,6.636,2.018,9.412,0c3.728-2.711,91.301-67.265,91.301-142.479C288.019,115.073,244.952,72.005,192.013,72.005z"/>
<path style="fill:#FFBE35;" d="M203.309,302.49c-3.728-2.711-91.301-67.265-91.301-142.479c0-34.379,18.168-64.59,45.404-81.551
	c-35.889,13.915-61.405,48.807-61.405,89.552c0,75.214,87.573,139.768,91.3,142.479c2.775,2.018,6.636,2.018,9.412,0
	c0.655-0.476,3.903-2.867,8.802-6.881C204.74,303.357,203.991,302.986,203.309,302.49z"/>
<path style="fill:#FFE88F;" d="M192.013,112.007c-30.88,0-56.004,25.124-56.004,56.004s25.124,56.004,56.004,56.004
	s56.004-25.124,56.004-56.004S222.894,112.007,192.013,112.007z"/>
<g>
</g>
<g>
</g>
<g>
</g>
<g>
</g>
<g>
</g>
<g>
</g>
<g>
</g>
<g>
</g>
<g>
</g>
<g>
</g>
<g>
</g>
<g>
</g>
<g>
</g>
<g>
</g>
<g>
</g>
</svg>
